<?xml version="1.0" encoding="UTF-8"?>
<svg id="Layer_2" data-name="Layer 2" xmlns="http://www.w3.org/2000/svg" viewBox="0 0 1037.63 163.43">
  <defs>
    <style>
      .cls-1 {
        fill: #fff;
      }

      .cls-2 {
        fill: #ed0000;
      }
    </style>
  </defs>
  <g id="Layer_1-2" data-name="Layer 1">
    <g>
      <path class="cls-2" d="M636.99,133.9l24.47-91.27,35.92-.05-5.54,21.13,61.24-.08c6.24-.41,11.66-4.01,13.37-10.12l3.53-12.58c.45-1.6-.27-5.43-1.28-6.68-1.19-1.48-4.08-2.61-6.68-3.07l-97.87.02L672.39.01l108.57.07c8.13,0,16.71,1.59,22.69,6.61,5.5,4.61,6.15,13.19,4.92,20.03-2.64,14.7-6.28,28.72-11.22,42.76-6.42,18.23-24.11,24.82-43.31,24.84l-70.35.06-10.37,39.59-36.33-.07Z"/>
      <path class="cls-1" d="M254.48,107.61c7.42-.06,12.46-4.97,14.11-11.21l6.74-25.51c.41-1.56-.23-5.35-1.22-6.6-1.12-1.4-4.47-3.18-6.58-3.18l-30,.04c-6.57,0-11.54,4.51-13.79,10.48l-24.49,91.77-31.07.03,27.7-102.74c5.31-18.27,18.72-26.53,37.65-26.61l43.94-.2c6.77-.03,13.49.76,19.87,2.39,12.64,3.23,13.92,16.28,10.49,29.35l-11.42,43.45c-3.8,14.47-15.79,24.14-31.07,24.29l-47.81.48,6.95-25.98,30-.25Z"/>
      <path class="cls-2" d="M1024.84,107.71c-4.57,17.08-19.09,26.17-35.99,26.14l-64.45-.11c-6.83-.01-14.62-1.89-19.38-6.6s-5.8-12.71-4.12-19.02l12.54-47.27c5.67-21.39,23.37-27.03,44.49-27l49.96.06c6.35,0,12.71.91,18.65,2.57,12.79,3.59,12.58,17.93,8.99,31.33l-10.67,39.89ZM996.43,96.24l6.48-26.1c1.21-4.87-3.1-9.21-8-9.21l-38.02-.03c-6.69,0-12.75,4.49-14.43,10.86l-6.93,26.4c-1.16,4.43,2.4,9.44,7.26,9.46l39.71.11c6.76.02,12.26-4.78,13.93-11.5Z"/>
      <path class="cls-1" d="M396.74,60.32h-31.2c-5.75.02-10.2,4.23-11.56,9.31l-7.65,28.55c-1.32,4.92,1.54,8.81,6.54,9.66l65.94-.03-7.06,26.06-77.65-.24c-6.69-.02-14.46-2.61-18.64-7.37-4.6-5.25-4.42-13.36-2.7-19.81l12.37-46.58c5.32-20.03,23.13-26.03,43.26-26.01l41.01.05c5.11,0,10.6,1.29,15.27,2.98,7.17,2.6,11.1,9.8,9.36,17.34l-6.08,26.43c-1.95,8.46-8.43,14.58-17.63,14.57l-53.69-.02,5.72-20.34,33.76-.2c3.2-.02,5.36-4.54,5.69-7.36.38-3.23-1.08-7.01-5.05-7.01Z"/>
      <path class="cls-1" d="M129.24,133.19l16.77-61.72c.09-2.12-.05-5-.71-6.43-.74-1.58-4.44-3.4-6.35-3.39l-29.56.15c-5.84.03-10.09,4.29-11.84,9.5l-16.53,61.97-30.44-.07,26.36-99.19,76.56-.09c5.67,0,11.24,1.44,16.4,2.75,12.97,5.75,11.46,17.65,7.64,31.47l-17.69,65.09-30.62-.06Z"/>
      <path class="cls-1" d="M477.55,107.67l58.74.15-6.72,26.07-70.43-.26c-7.53-.03-16.15-2.66-20.45-8.74-3.66-5.17-3.64-13.29-2.03-19.33l11.74-44.21c2.82-10.63,10.11-19.6,20.32-23.61,7.81-3.07,16.12-3.83,24.6-3.82l60.87.02-6.89,26.89-55.97.02c-7.48.61-13.51,4.84-15.38,12l-6.43,24.65c-1.19,4.57,2.15,10.15,8.03,10.17Z"/>
      <path class="cls-1" d="M622.86,107.78l-6.87,26.15-43.36-.21c-6.11-.03-13.16-2.12-17.31-6.68-3.69-4.05-4.83-11.66-3.37-17.14l12.95-48.69-7.11-.57,7.2-26.37,7.3-.19L581.01.19l31.62-.19-8.98,33.92,33.57.1-6.91,26.85-34.04.11-9.94,37.48c-.41,1.56.17,5.54,1.34,6.6s3.86,2.11,5.76,2.75l29.41-.04Z"/>
      <path class="cls-2" d="M861.4,61.82c-7.7,0-13.2,4.78-15.35,11.55l-15.9,60.49-32.72.09,19.52-72.65c4.5-16.76,18.15-26.08,35.12-27.29l53.79-.19-7.15,27.95-37.31.04Z"/>
      <polygon class="cls-1" points="31.59 133.03 0 132.87 26 34.26 58.15 34.23 31.59 133.03"/>
    </g>
  </g>
</svg>