<?xml version="1.0" encoding="UTF-8"?>
<svg id="Layer_2" data-name="Layer 2" xmlns="http://www.w3.org/2000/svg" viewBox="0 0 1037.63 250.36">
  <defs>
    <style>
      .cls-1 {
        fill: #fff;
      }

      .cls-2 {
        fill: #ed0000;
      }
    </style>
  </defs>
  <g id="Layer_1-2" data-name="Layer 1">
    <g>
      <path class="cls-2" d="M636.99,133.9l24.47-91.27,35.92-.05-5.54,21.13,61.24-.08c6.24-.41,11.66-4.01,13.37-10.12l3.53-12.58c.45-1.6-.27-5.43-1.28-6.68-1.19-1.48-4.08-2.61-6.68-3.07l-97.87.02L672.39.01l108.57.07c8.13,0,16.71,1.59,22.69,6.61,5.5,4.61,6.15,13.19,4.92,20.03-2.64,14.7-6.28,28.72-11.22,42.76-6.42,18.23-24.11,24.82-43.31,24.84l-70.35.06-10.37,39.59-36.33-.07Z"/>
      <path class="cls-1" d="M254.48,107.61c7.42-.06,12.46-4.97,14.11-11.21l6.74-25.51c.41-1.56-.23-5.35-1.22-6.6-1.12-1.4-4.47-3.18-6.58-3.18l-30,.04c-6.57,0-11.54,4.51-13.79,10.48l-24.49,91.77-31.07.03,27.7-102.74c5.31-18.27,18.72-26.53,37.65-26.61l43.94-.2c6.77-.03,13.49.76,19.87,2.39,12.64,3.23,13.92,16.28,10.49,29.35l-11.42,43.45c-3.8,14.47-15.79,24.14-31.07,24.29l-47.81.48,6.95-25.98,30-.25Z"/>
      <path class="cls-2" d="M1024.84,107.71c-4.57,17.08-19.09,26.17-35.99,26.14l-64.45-.11c-6.83-.01-14.62-1.89-19.38-6.6s-5.8-12.71-4.12-19.02l12.54-47.27c5.67-21.39,23.37-27.03,44.49-27l49.96.06c6.35,0,12.71.91,18.65,2.57,12.79,3.59,12.58,17.93,8.99,31.33l-10.67,39.89ZM996.43,96.24l6.48-26.1c1.21-4.87-3.1-9.21-8-9.21l-38.02-.03c-6.69,0-12.75,4.49-14.43,10.86l-6.93,26.4c-1.16,4.43,2.4,9.44,7.26,9.46l39.71.11c6.76.02,12.26-4.78,13.93-11.5Z"/>
      <path class="cls-1" d="M396.74,60.32h-31.2c-5.75.02-10.2,4.23-11.56,9.31l-7.65,28.55c-1.32,4.92,1.54,8.81,6.54,9.66l65.94-.03-7.06,26.06-77.65-.24c-6.69-.02-14.46-2.61-18.64-7.37-4.6-5.25-4.42-13.36-2.7-19.81l12.37-46.58c5.32-20.03,23.13-26.03,43.26-26.01l41.01.05c5.11,0,10.6,1.29,15.27,2.98,7.17,2.6,11.1,9.8,9.36,17.34l-6.08,26.43c-1.95,8.46-8.43,14.58-17.63,14.57l-53.69-.02,5.72-20.34,33.76-.2c3.2-.02,5.36-4.54,5.69-7.36.38-3.23-1.08-7.01-5.05-7.01Z"/>
      <path class="cls-1" d="M129.24,133.19l16.77-61.72c.09-2.12-.05-5-.71-6.43-.74-1.58-4.44-3.4-6.35-3.39l-29.56.15c-5.84.03-10.09,4.29-11.84,9.5l-16.53,61.97-30.44-.07,26.36-99.19,76.56-.09c5.67,0,11.24,1.44,16.4,2.75,12.97,5.75,11.46,17.65,7.64,31.47l-17.69,65.09-30.62-.06Z"/>
      <path class="cls-1" d="M477.55,107.67l58.74.15-6.72,26.07-70.43-.26c-7.53-.03-16.15-2.66-20.45-8.74-3.66-5.17-3.64-13.29-2.03-19.33l11.74-44.21c2.82-10.63,10.11-19.6,20.32-23.61,7.81-3.07,16.12-3.83,24.6-3.82l60.87.02-6.89,26.89-55.97.02c-7.48.61-13.51,4.84-15.38,12l-6.43,24.65c-1.19,4.57,2.15,10.15,8.03,10.17Z"/>
      <path class="cls-1" d="M622.86,107.78l-6.87,26.15-43.36-.21c-6.11-.03-13.16-2.12-17.31-6.68-3.69-4.05-4.83-11.66-3.37-17.14l12.95-48.69-7.11-.57,7.2-26.37,7.3-.19L581.01.19l31.62-.19-8.98,33.92,33.57.1-6.91,26.85-34.04.11-9.94,37.48c-.41,1.56.17,5.54,1.34,6.6s3.86,2.11,5.76,2.75l29.41-.04Z"/>
      <path class="cls-2" d="M861.4,61.82c-7.7,0-13.2,4.78-15.35,11.55l-15.9,60.49-32.72.09,19.52-72.65c4.5-16.76,18.15-26.08,35.12-27.29l53.79-.19-7.15,27.95-37.31.04Z"/>
      <polygon class="cls-1" points="31.59 133.03 0 132.87 26 34.26 58.15 34.23 31.59 133.03"/>
      <g>
        <polygon class="cls-2" points="44.83 190.54 22.65 189.91 22.66 188.29 44.81 187.83 190.6 183.44 187.68 194.81 44.83 190.54"/>
        <path class="cls-2" d="M998.88,190.14l-44.93,1.68-78.08,2.58,2.37-10.73,114.58,4.1,18.29.75c-4.01,1.28-7.78,1.45-12.22,1.62Z"/>
        <polygon class="cls-1" points="505.53 207.35 497.22 207.44 486.51 183.62 481.35 207.52 473.19 207.35 480.78 171.61 489.27 171.44 499.97 194.47 504.79 171.56 512.86 171.63 505.53 207.35"/>
        <path class="cls-1" d="M840.97,207.54l-4.58-11.87c-1.47-.8-5.37-.92-6.98-.53l-2.43,12.25-8.27.02,7.39-36.02,19.31.31c5.54.09,8.88,5.41,8.42,10.22-.54,5.7-2.97,9.68-9.21,11.75l5.22,13.99-8.87-.13ZM841.74,187.83c1.5-.06,3.59-3.15,3.93-4.54s-1.4-4.62-2.82-4.66l-10.23-.32-1.82,9.94,10.94-.42Z"/>
        <path class="cls-1" d="M779.79,208.01c-8.96-1.01-13.83-7.65-13.47-15.81.58-13.07,10.7-22.33,23.82-21.19,8.08.7,13.54,6.84,13.41,15.14-.21,12.9-10.37,23.38-23.76,21.86ZM789.41,198.94c6.61-5.07,7.82-15.65,2.64-19.53-1.71-1.28-5.63-1.9-7.84-1.17-8.02,2.63-11.85,12.32-7.76,19.58,2.38,4.22,9.06,4.11,12.96,1.12Z"/>
        <path class="cls-1" d="M379.83,208.16c-7.78.47-14.85-3.79-16.23-11.02s.54-13.91,5.1-19.03c4.24-4.76,10.56-7.47,17.71-7.13,8.84.43,14.53,7.44,13.93,16.08-.79,11.33-8.32,20.36-20.51,21.09ZM385.42,199.47c5.86-3.77,8.67-12.44,4.96-18.3-3.07-4.85-10.38-3.92-14.17-.16-4.02,3.99-6.07,10.6-3.57,15.94,2.06,4.4,8.29,5.41,12.77,2.52Z"/>
        <path class="cls-1" d="M239.4,200.97l-14.73-.09-4.11,6.82-8.7-.26,21.03-35.85h9.29s6.89,36.06,6.89,36.06l-8.28.06-1.38-6.74ZM238.72,194.12l-2.74-14.52-7.98,14.46,10.72.06Z"/>
        <polygon class="cls-1" points="650.95 192.59 634.61 192.57 632.63 200.58 651.22 200.54 649.68 207.64 623.18 207.68 630.74 171.51 656.95 171.54 655.3 178.34 637.26 178.32 635.59 185.98 652.42 186.04 650.95 192.59"/>
        <path class="cls-1" d="M295.46,171.57l8.2-.02-4.92,23.89c-1.9,9.23-10.38,13.24-19.31,12.7-6.9-.42-13.34-5.26-11.73-12.87l5.02-23.69,7.96-.02-4.64,22.46c-.26,1.26.51,4.54,1.41,5.37,3.22,2.97,11.61,1.82,12.73-3.39l5.27-24.43Z"/>
        <path class="cls-1" d="M554.44,203.12c-7.82,7.7-21.72,6.72-28.33-1.73l5.86-5.18c3.89,4.15,9.18,6.19,14.48,4.09,1.05-.42,2.77-2.49,2.66-3.57-.46-4.51-9.1-3.12-14.8-7.59-4.7-3.68-3.44-11.46,1.25-14.73,7.34-5.12,17.35-4.98,24.45,1.86l-5.49,5.3c-3.74-3.5-7.66-4.82-12.01-3.31-1,.35-2.75,2.42-2.8,3.46-.21,4.15,7.92,3.31,14.5,7.55,4.07,2.62,4.17,9.97.23,13.85Z"/>
        <path class="cls-1" d="M596.72,195.16l-11.42.56-2.87,11.99-7.92-.38,7.52-35.8,17.16-.03c4.16,0,8.6,2.7,9.69,6.77,2.17,8.11-3.19,16.45-12.17,16.89ZM596.38,188.66c1.68-.06,4.09-3.07,4.59-4.48.43-1.23-.44-4.76-1.74-5.11-2.73-.72-7.57-.81-10.64-.81l-2.33,10.78,10.12-.38Z"/>
        <path class="cls-1" d="M681.69,198.04c3.82,5.27,11.44,3.04,14.69-1.95,2.27,1.12,4.23,2.37,6.11,3.92-5.81,8.49-17.3,10.78-25.41,5.21-5.55-3.81-6.58-11.23-5.22-17.31,2.52-11.27,12.77-18.75,24.22-16.77,4.72.82,8.02,3.64,10.25,7.87l-7.09,3.67c-2.43-3.88-5.76-5.55-10.13-4.32-7.52,2.11-12.46,12.7-7.41,19.68Z"/>
        <polygon class="cls-1" points="333.33 207.3 324.93 207.69 331.07 178.5 320.71 178.2 322.09 171.53 350.91 171.54 349.56 178.26 339.5 178.35 333.33 207.3"/>
        <polygon class="cls-1" points="735.87 207.6 727.64 207.51 733.51 178.57 723.39 178.24 724.73 171.51 753.87 171.53 752.36 178.3 741.86 178.29 735.87 207.6"/>
        <polygon class="cls-1" points="451.21 207.68 443.14 207.31 450.74 171.56 458.69 171.59 451.21 207.68"/>
      </g>
      <g>
        <path class="cls-2" d="M224.97,250.02h-3.88l3.29-15.67h-5.52l.65-3.14h14.83l-.65,3.14h-5.44l-3.27,15.67Z"/>
        <path class="cls-2" d="M238.36,250.02l3.93-18.82h13.95l-.65,3.14h-10.08l-.9,4.28h9.74l-.65,3.14h-9.74l-1.18,5.11h10.95l-.67,3.15h-14.7Z"/>
        <path class="cls-2" d="M261.52,250.02l3.94-18.82h3.86l-3.27,15.67h9.58l-.65,3.15h-13.45Z"/>
        <path class="cls-2" d="M282.83,250.02l3.94-18.82h3.86l-3.93,18.82h-3.88Z"/>
        <path class="cls-2" d="M304.02,250.02h-3.88l3.29-15.67h-5.52l.65-3.14h14.83l-.65,3.14h-5.44l-3.27,15.67Z"/>
        <path class="cls-2" d="M317.24,250.02l3.94-18.82h3.86l-3.93,18.82h-3.88Z"/>
        <path class="cls-2" d="M351.25,250.02h-3.88l3.29-15.67h-5.52l.65-3.14h14.83l-.65,3.14h-5.44l-3.27,15.67Z"/>
        <path class="cls-2" d="M368.59,250.02h-3.88l3.94-18.82h8.36c1.44,0,2.56.15,3.36.44.8.29,1.45.84,1.94,1.62.49.79.74,1.74.74,2.86,0,1.6-.48,2.92-1.44,3.96-.96,1.04-2.41,1.68-4.35,1.93.5.45.96,1.03,1.4,1.76.86,1.47,1.83,3.55,2.89,6.24h-4.16c-.33-1.06-.99-2.72-1.96-4.97-.53-1.22-1.1-2.03-1.69-2.45-.37-.25-1.01-.37-1.93-.37h-1.58l-1.63,7.79ZM370.81,239.41h2.05c2.08,0,3.46-.12,4.14-.37.68-.25,1.21-.64,1.6-1.17.39-.53.58-1.09.58-1.67,0-.68-.28-1.2-.83-1.54-.34-.21-1.08-.31-2.22-.31h-4.26l-1.05,5.06Z"/>
        <path class="cls-2" d="M401.47,245.86h-7.46l-2.26,4.16h-3.98l10.64-18.82h4.3l3.06,18.82h-3.67l-.63-4.16ZM401,242.73l-1.09-7.57-4.54,7.57h5.64Z"/>
        <path class="cls-2" d="M428.7,250.02h-3.61l-5.08-12.64-2.64,12.64h-3.61l3.93-18.82h3.62l5.1,12.59,2.63-12.59h3.59l-3.93,18.82Z"/>
        <path class="cls-2" d="M438.75,243.92l3.68-.19c.05,1.17.25,1.96.6,2.38.56.67,1.61,1,3.13,1,1.27,0,2.18-.23,2.75-.68.56-.45.85-1,.85-1.64,0-.56-.23-1.03-.69-1.41-.33-.28-1.22-.74-2.68-1.37-1.46-.63-2.52-1.16-3.2-1.58-.67-.42-1.2-.97-1.59-1.65-.39-.68-.58-1.47-.58-2.38,0-1.58.57-2.9,1.72-3.94s2.81-1.57,4.98-1.57,3.92.52,5.13,1.55c1.21,1.04,1.88,2.41,2,4.13l-3.71.17c-.09-.9-.42-1.59-.98-2.07-.56-.48-1.38-.72-2.46-.72s-1.83.19-2.29.56c-.46.38-.69.85-.69,1.42,0,.54.21.98.63,1.33.42.36,1.35.85,2.79,1.48,2.17.93,3.54,1.69,4.13,2.27.88.86,1.32,1.96,1.32,3.3,0,1.66-.66,3.08-1.97,4.26s-3.14,1.77-5.49,1.77c-1.62,0-3.02-.27-4.2-.82-1.19-.54-2.02-1.3-2.51-2.27-.49-.97-.71-2.08-.68-3.34Z"/>
        <path class="cls-2" d="M465.08,250.02h-3.88l3.94-18.82h7.65c1.36,0,2.44.16,3.23.48.79.32,1.42.85,1.88,1.59s.69,1.62.69,2.65c0,.95-.18,1.87-.55,2.77-.37.9-.82,1.62-1.35,2.16-.53.54-1.11.95-1.73,1.23-.62.28-1.45.49-2.49.64-.61.09-1.75.13-3.41.13h-2.48l-1.5,7.18ZM467.23,239.73h1.19c2.05,0,3.41-.13,4.09-.38s1.22-.67,1.62-1.23c.39-.57.59-1.19.59-1.86,0-.45-.1-.83-.3-1.12-.2-.29-.48-.5-.85-.64-.36-.13-1.17-.2-2.43-.2h-2.77l-1.14,5.43Z"/>
        <path class="cls-2" d="M494.65,245.86h-7.46l-2.26,4.16h-3.98l10.64-18.82h4.3l3.06,18.82h-3.67l-.63-4.16ZM494.17,242.73l-1.09-7.57-4.54,7.57h5.64Z"/>
        <path class="cls-2" d="M510.79,250.02h-3.88l3.94-18.82h8.36c1.44,0,2.56.15,3.36.44.8.29,1.45.84,1.94,1.62.49.79.74,1.74.74,2.86,0,1.6-.48,2.92-1.44,3.96-.96,1.04-2.41,1.68-4.35,1.93.5.45.96,1.03,1.4,1.76.86,1.47,1.83,3.55,2.89,6.24h-4.16c-.33-1.06-.99-2.72-1.96-4.97-.53-1.22-1.1-2.03-1.69-2.45-.37-.25-1.01-.37-1.93-.37h-1.58l-1.63,7.79ZM513.01,239.41h2.05c2.08,0,3.46-.12,4.14-.37.68-.25,1.21-.64,1.6-1.17.39-.53.58-1.09.58-1.67,0-.68-.28-1.2-.83-1.54-.34-.21-1.08-.31-2.22-.31h-4.26l-1.05,5.06Z"/>
        <path class="cls-2" d="M543.66,245.86h-7.46l-2.26,4.16h-3.98l10.64-18.82h4.3l3.06,18.82h-3.67l-.63-4.16ZM543.19,242.73l-1.09-7.57-4.54,7.57h5.64Z"/>
        <path class="cls-2" d="M570.89,250.02h-3.61l-5.08-12.64-2.64,12.64h-3.61l3.93-18.82h3.62l5.1,12.59,2.63-12.59h3.59l-3.93,18.82Z"/>
        <path class="cls-2" d="M601.37,250.02h-3.88l3.29-15.67h-5.52l.65-3.14h14.83l-.65,3.14h-5.44l-3.27,15.67Z"/>
        <path class="cls-2" d="M614.76,250.02l3.93-18.82h13.95l-.65,3.14h-10.08l-.9,4.28h9.74l-.65,3.14h-9.74l-1.18,5.11h10.95l-.67,3.15h-14.7Z"/>
        <path class="cls-2" d="M641.77,250.02h-3.88l3.94-18.82h8.36c1.44,0,2.56.15,3.36.44.8.29,1.45.84,1.94,1.62.49.79.74,1.74.74,2.86,0,1.6-.48,2.92-1.44,3.96-.96,1.04-2.41,1.68-4.35,1.93.5.45.96,1.03,1.4,1.76.86,1.47,1.83,3.55,2.89,6.24h-4.16c-.33-1.06-.99-2.72-1.96-4.97-.53-1.22-1.1-2.03-1.69-2.45-.37-.25-1.01-.37-1.93-.37h-1.58l-1.63,7.79ZM643.99,239.41h2.05c2.08,0,3.46-.12,4.14-.37.68-.25,1.21-.64,1.6-1.17.39-.53.58-1.09.58-1.67,0-.68-.28-1.2-.83-1.54-.34-.21-1.08-.31-2.22-.31h-4.26l-1.05,5.06Z"/>
        <path class="cls-2" d="M666.19,250.02h-3.88l3.94-18.82h7.65c1.36,0,2.44.16,3.23.48.79.32,1.42.85,1.88,1.59s.69,1.62.69,2.65c0,.95-.18,1.87-.55,2.77-.37.9-.82,1.62-1.35,2.16-.53.54-1.11.95-1.73,1.23-.62.28-1.45.49-2.49.64-.61.09-1.75.13-3.41.13h-2.48l-1.5,7.18ZM668.34,239.73h1.19c2.05,0,3.41-.13,4.09-.38s1.22-.67,1.62-1.23c.39-.57.59-1.19.59-1.86,0-.45-.1-.83-.3-1.12-.2-.29-.48-.5-.85-.64-.36-.13-1.17-.2-2.43-.2h-2.77l-1.14,5.43Z"/>
        <path class="cls-2" d="M685.38,250.02l3.93-18.82h13.95l-.65,3.14h-10.08l-.9,4.28h9.74l-.65,3.14h-9.74l-1.18,5.11h10.95l-.67,3.15h-14.7Z"/>
        <path class="cls-2" d="M712.4,250.02h-3.88l3.94-18.82h8.36c1.44,0,2.56.15,3.36.44.8.29,1.45.84,1.94,1.62.49.79.74,1.74.74,2.86,0,1.6-.48,2.92-1.44,3.96-.96,1.04-2.41,1.68-4.35,1.93.5.45.96,1.03,1.4,1.76.86,1.47,1.83,3.55,2.89,6.24h-4.16c-.33-1.06-.99-2.72-1.96-4.97-.53-1.22-1.1-2.03-1.69-2.45-.37-.25-1.01-.37-1.93-.37h-1.58l-1.63,7.79ZM714.62,239.41h2.05c2.08,0,3.46-.12,4.14-.37.68-.25,1.21-.64,1.6-1.17.39-.53.58-1.09.58-1.67,0-.68-.28-1.2-.83-1.54-.34-.21-1.08-.31-2.22-.31h-4.26l-1.05,5.06Z"/>
        <path class="cls-2" d="M746.58,243.24l3.9.59c-.76,2.11-1.9,3.73-3.43,4.85-1.52,1.12-3.31,1.68-5.35,1.68-2.3,0-4.1-.69-5.4-2.08s-1.94-3.4-1.94-6.03c0-2.14.43-4.1,1.3-5.87.87-1.78,2.07-3.13,3.61-4.08s3.22-1.41,5.03-1.41c2.04,0,3.68.55,4.94,1.64,1.26,1.09,2,2.58,2.22,4.46l-3.71.36c-.21-1.1-.6-1.89-1.19-2.38s-1.37-.74-2.34-.74c-1.07,0-2.07.33-3,.98-.93.65-1.67,1.67-2.23,3.05-.56,1.38-.83,2.76-.83,4.14,0,1.51.36,2.67,1.08,3.49.72.82,1.62,1.23,2.7,1.23,1,0,1.92-.33,2.75-.98s1.46-1.61,1.87-2.89Z"/>
        <path class="cls-2" d="M769.78,245.86h-7.46l-2.26,4.16h-3.98l10.64-18.82h4.3l3.06,18.82h-3.67l-.63-4.16ZM769.31,242.73l-1.09-7.57-4.54,7.57h5.64Z"/>
        <path class="cls-2" d="M789.48,250.02h-3.86l1.53-7.33-5.19-11.49h4.12l2.34,5.31c.56,1.28.93,2.2,1.12,2.76.32-.56.68-1.15,1.1-1.77l1.78-2.49,2.66-3.81h4.49l-8.63,11.85-1.46,6.97Z"/>
        <path class="cls-2" d="M813.44,245.86h-7.46l-2.26,4.16h-3.98l10.64-18.82h4.3l3.06,18.82h-3.67l-.63-4.16ZM812.97,242.73l-1.09-7.57-4.54,7.57h5.64Z"/>
      </g>
    </g>
  </g>
</svg>