<?xml version="1.0" encoding="UTF-8"?>
<svg id="Layer_2" data-name="Layer 2" xmlns="http://www.w3.org/2000/svg" viewBox="0 0 824.46 392.59">
  <defs>
    <style>
      .cls-1 {
        fill: #fff;
      }
    </style>
  </defs>
  <g id="Layer_1-2" data-name="Layer 1">
    <g>
      <path class="cls-1" d="M281.12,231.72c1.99-2.68,4.59-5.23,7.37-7.69l86.66-13.07c9.15-1.38,15.38-6.24,21.23-12.91l18.98-21.62c-29.69,4.65-57.91,9.57-86.61,15.86l-35,9.14c-8.71,2.28-16.28,7.01-21.96,13.94l-22.94,27.98,93.16-3.69,46.09-2.29c4.1-.2,7.81-1.11,12.14.01-57.98,9.5-115.91,16.86-174.65,23.47l-13.05,6.61c14.06-22.77,28.8-44.08,45.56-64.78-58.89-3.95-117-5.44-175.77-3.32l-43.99,2.45,12.42,62.04c-4.93-4.96-9.15-7.73-15.25-9.47-10.74-3.06-20.46-6.79-30.13-12.41l-1.36,70.78C.26,287.68-.09,262.43.71,236.6l9.91-13.88c3.9,8.41,14.62,13.42,23.58,16.47l-9.79-39.49c-1.9-7.67.41-14.55,5.95-20.03,11.69-11.55,25.79-19.52,41.28-25.56,45.02-17.57,95.51-25.67,143.35-33.28l6.41-5.71c-4.98-1.15-9.41-2.16-13.39-4.46-.11-16.5,17.83-21.05,34.11-22.13l1.97,3.45c21.96-20.44,44.54-38.57,69.58-54.46,20.02-12.7,41.01-20.65,64.36-24.74,23.85-4.18,46.68-6.75,70.99-8.91,39.96-3.56,78.76-4.78,118.8-3.12,21.01.87,40.64,1.85,61.31,4.8,37.75,5.39,72.29,19.5,103.08,41.82,16.15,11.71,30.19,24.59,44.34,38.72,4.48,4.48,10.95,5.22,16.3,8.92l-21.66-4.58c-3.35-.71-6.38-2.77-8.89-5.21-20.68-20.13-43.52-36.9-69.83-48.95-22.82-10.46-46.49-17.28-71.47-18-35.46-1.03-46.09,26.36-61.62,53.94-10.58,3.88-19.98,8.42-29.61,14.51l9.52-17.54c7.58-13.98,15.22-27.43,24.4-40.43l10.88-12.57c-54.05-2.81-107.38-1.61-161.04,4.14-19.53,2.09-37.78,4.75-56.71,9.17-9.07,2.12-17.33,5.09-25.56,9.62-23.68,13.02-44.86,28.79-65.11,46.73l-33.49,32.13c56.33-4.66,110.56-8.16,166.31-8.2l105.4-.08-4.88,6.06-123.16,9.38-70.26,5.9c-35.68,2.99-70.12,7.72-105.26,14.41-40.58,7.72-88.41,22.05-120.07,49.3l79.88.66,81.52,3.52,19.95.78c35.99-12.46,71.8-22.05,109.15-29.75,31.62-6.52,62.31-11.91,95.21-13.89-10.77,6.87-20.71,13.74-28.25,23.93l-20.79,28.09c-6.68,9.02-14.88,14.85-26.45,15.91l-109.82,7.76Z"/>
      <path class="cls-1" d="M713.31,138.49c24.53,41.19,23.9,94.93-.02,137.58l15.02,13.23-15.63,18.92-13.58-12.15c-15.91,16.96-34.13,29.05-55.65,36.05-58.27,18.95-121.97-7.79-149.44-62.64-18.69-37.32-18.83-81.41-1.76-119.04,16.08-35.45,47.55-60.7,82.41-69.41,41.72-10.43,82.9.05,114.03,27.4l-14.22,14.93c-38.59-33.58-94.9-34.94-134.59-2.35-32.38,26.59-46.89,69.62-38.05,110.68,8.36,38.84,35.78,70.44,74.13,81.89,43.74,13.06,92.16-4.14,117.19-42.55,22.26-34.16,24.36-78.11,8.02-114.52l12.14-18.01Z"/>
      <path class="cls-1" d="M525.97,203.02c-.79-.86-2.43-3.09-1.68-3.58l3.41-2.2,25.67-.06,41.4,29.14,117.1-125.18c7.76-7.38,13.65-14.68,22.9-21.73-13.91,24.39-27.97,47.97-44.16,71.26l-87.2,125.39c-3.95,5.68-11.43,1.26-14.58-2.3l-51.08-57.81-11.79-12.92Z"/>
      <path class="cls-1" d="M59.88,308.87c-8.26-.33-14.8,1.98-19.86,7.52l-18.51,20.3,108.78,8.87,125.72,8.04,10.23.72c6.14.43,12.38-.06,17.91,1.22-72.8.12-144.37-1.99-216.72-6.91l-55.7-5.27c-4.57-.43-8.78-3.22-11.73-6.66,2.87-3.93,7-6.36,9.3-9.96l16.44-25.81c2.35-3.7,8.85-5.74,13.7-5.54l183.45,7.59c11.9.49,21.67,3.2,31.27,9.68l29.25,19.73c5.5,3.71,11.85,6.09,18.73,6.47l73.87,4.16,8.11,1.26c-34.83,2.31-69.51,4.47-104.89,5-13.22.2-24.85-3.02-35.41-10.31l-19.49-13.46c-9.91-6.84-19.62-10.89-32.05-11.38l-132.4-5.23Z"/>
      <path class="cls-1" d="M811.63,388.28c-5.57,6.84-14.23,4.69-20.22-.51l-78.99-68.7c-2.78-2.41.58-6.87,2.01-8.62l17.11-20.91c2.95-3.6,7.93-.26,10.48,1.92l78.09,66.69c5.45,4.66,5.66,12.76,1.27,18.15l-9.76,11.98Z"/>
    </g>
  </g>
</svg>